<svg width="76" height="47" viewBox="0 0 76 47" fill="none" xmlns="http://www.w3.org/2000/svg">
<circle cx="52.5001" cy="23.4946" r="18.5" transform="rotate(-17.832 52.5001 23.4946)" fill="#C4C4C4"/>
<path d="M51.5301 33.786L50.489 30.5494L48.4185 31.2154L47.9208 29.6685L49.9913 29.0024L49.31 26.8843L47.2395 27.5504L46.6577 25.7416L48.7282 25.0756L46.064 16.7936L50.5382 15.3543C52.6166 14.6857 54.2909 14.6111 55.5609 15.1304C56.8469 15.6447 57.7476 16.703 58.263 18.3055C58.7836 19.9238 58.6446 21.3692 57.8458 22.6416C57.042 23.8981 55.5771 24.8683 53.451 25.5522L51.4519 26.1953L52.1333 28.3134L56.0601 27.0502L56.5577 28.5972L52.6309 29.8603L53.6721 33.097L51.5301 33.786ZM50.8701 24.3866L52.5598 23.843C54.0036 23.3786 55.0456 22.7808 55.6858 22.0496C56.3418 21.3133 56.4708 20.3264 56.0727 19.0889C55.7257 18.01 55.1347 17.3159 54.2999 17.0067C53.4651 16.6975 52.3417 16.77 50.9296 17.2243L48.7877 17.9133L50.8701 24.3866Z" fill="white"/>
<line y1="23.4946" x2="30" y2="23.4946" stroke="#C4C4C4"/>
<line x1="15" y1="13.4946" x2="30" y2="13.4946" stroke="#C4C4C4"/>
<line x1="9" y1="32.4946" x2="30" y2="32.4946" stroke="#C4C4C4"/>
</svg>
