<svg width="76" height="34" viewBox="0 0 76 34" fill="none" xmlns="http://www.w3.org/2000/svg">
<circle cx="52.4999" cy="22.6578" r="18.5" transform="rotate(15 52.4999 22.6578)" fill="#A7A7A7"/>
<path d="M46.105 30.7793L46.985 27.4952L44.8841 26.9322L45.3047 25.3626L47.4055 25.9255L47.9814 23.7763L45.8805 23.2134L46.3723 21.3781L48.4732 21.9411L50.7249 13.5375L55.2648 14.754C57.3737 15.3191 58.821 16.1641 59.6066 17.2891C60.4083 18.4184 60.5913 19.796 60.1556 21.422C59.7156 23.0641 58.8151 24.2032 57.4541 24.8393C56.0974 25.4593 54.3404 25.4802 52.1832 24.9022L50.1548 24.3587L49.5789 26.5079L53.5633 27.5755L53.1427 29.1451L49.1583 28.0775L48.2783 31.3616L46.105 30.7793ZM50.6465 22.5234L52.361 22.9828C53.826 23.3754 55.0257 23.438 55.96 23.1707C56.9105 22.9078 57.5539 22.1484 57.8904 20.8927C58.1837 19.798 58.0635 18.8944 57.5297 18.182C56.9959 17.4696 56.0126 16.9214 54.5798 16.5375L52.4065 15.9551L50.6465 22.5234Z" fill="white"/>
<line y1="22.6577" x2="30" y2="22.6577" stroke="#C4C4C4"/>
<line x1="15" y1="12.6577" x2="30" y2="12.6577" stroke="#C4C4C4"/>
<line x1="9" y1="31.6577" x2="30" y2="31.6577" stroke="#C4C4C4"/>
</svg>
