<svg width="72" height="56" viewBox="0 0 72 56" fill="none" xmlns="http://www.w3.org/2000/svg">
<path d="M27.6173 31.0063L19.8126 54.825L38.8907 34.7063L47.1001 37.3657C47.8516 37.5969 48.7188 37.3079 49.1235 36.6141L70.6876 1.17505L2.58445 19.5016C0.907887 19.9641 0.850075 22.2766 2.46882 22.7969L14.2626 26.6704L19.7548 54.825" fill="white"/>
<path d="M19.8125 55.4032C19.6969 55.4032 19.5813 55.3454 19.4656 55.2876C19.4078 55.2876 19.4078 55.2298 19.4078 55.2298C19.35 55.172 19.2922 55.0563 19.2344 54.9407L13.8 27.1329L2.35313 23.3751C1.3125 23.086 0.734375 22.161 0.734375 21.1204C0.734375 20.0798 1.42813 19.2126 2.46875 18.9235L70.5719 0.539162C70.8031 0.48135 71.0344 0.539162 71.2078 0.770412C71.3234 0.94385 71.3812 1.23291 71.2656 1.40635L49.5859 36.961C49.0078 37.886 47.9094 38.2907 46.8688 37.9438L39.0062 35.4001L20.1594 55.2876C20.1016 55.3454 19.9859 55.4032 19.8703 55.461C19.8703 55.4032 19.8125 55.4032 19.8125 55.4032ZM27.6172 30.4282C27.675 30.4282 27.7328 30.4282 27.7906 30.4282C28.0797 30.5438 28.2531 30.8329 28.1375 31.1798L21.1422 52.5704L38.4281 34.3017C38.6016 34.1282 38.8328 34.0704 39.0062 34.1282L47.2156 36.7876C47.7359 36.961 48.2562 36.7298 48.5453 36.2673L69.3578 1.98447L2.75781 20.0798C2.12187 20.2532 1.89062 20.7157 1.89062 21.1782C1.89062 21.6407 2.06406 22.1032 2.7 22.3345L14.4937 26.2079C14.6672 26.2657 14.8406 26.4392 14.8984 26.6704L19.9281 52.6282L27.0391 30.9485C27.0969 30.6017 27.3281 30.4282 27.6172 30.4282Z" fill="#62355C" fill-opacity="0.33"/>
<path d="M26.6343 13.0266L40.9718 14.5297L42.1858 20.7735L47.9671 16.7844L56.8702 23.8375L70.6874 1.17505L26.6343 13.0266Z" fill="#FF0606"/>
<path d="M56.8702 24.4158C56.7546 24.4158 56.639 24.358 56.5233 24.3002L47.9671 17.5361L42.5327 21.2361C42.3593 21.3518 42.1858 21.3518 42.0124 21.2939C41.839 21.2361 41.7233 21.0627 41.6655 20.8893L40.5093 15.0502L26.5765 13.6049C26.2874 13.6049 26.0562 13.3736 26.0562 13.0846C26.0562 12.7955 26.2296 12.5643 26.4608 12.5064L70.514 0.654885C70.7452 0.597073 70.9765 0.654885 71.1499 0.886135C71.2655 1.05957 71.3233 1.34864 71.2077 1.52207L57.3905 24.1268C57.3327 24.2424 57.1593 24.358 56.9858 24.4158C56.9858 24.4158 56.928 24.4158 56.8702 24.4158ZM47.9671 16.2064C48.0827 16.2064 48.1405 16.2064 48.1983 16.2643C48.2562 16.2643 48.2562 16.3221 48.314 16.3221L56.6968 22.9705L69.4155 2.1002L29.814 12.7955L41.0296 13.9518C41.2608 13.9518 41.4921 14.183 41.5499 14.4143L42.5905 19.7908L47.6202 16.3221C47.7358 16.2643 47.8515 16.2064 47.9671 16.2064Z" fill="#62355C" fill-opacity="0.33"/>
<g opacity="0.1">
<path opacity="0.1" d="M19.8125 54.8251L38.8906 34.7063L27.6172 31.0063L19.8125 54.8251Z" fill="#111318" fill-opacity="0.33"/>
</g>
<g opacity="0.1">
<path opacity="0.1" d="M70.6875 1.17505L14.2625 26.5547L19.8125 54.825L38.8906 34.7063L27.6171 31.0063L70.6875 1.17505Z" fill="#111318" fill-opacity="0.33"/>
</g>
<path d="M19.8125 55.4032C19.7547 55.4032 19.6969 55.4032 19.6391 55.4032C19.4079 55.3454 19.2922 55.1719 19.2344 54.9407L13.7422 26.6704C13.6844 26.3813 13.8 26.15 14.0891 26.0344L70.5141 0.654735C70.8032 0.53911 71.0922 0.654735 71.2657 0.885985C71.4391 1.17505 71.3235 1.46411 71.0922 1.63755L28.8891 30.8329L39.0641 34.186C39.2376 34.2438 39.411 34.4172 39.4688 34.5907C39.5266 34.7641 39.4688 34.9954 39.3532 35.111L20.275 55.2297C20.1016 55.3454 19.9282 55.4032 19.8125 55.4032ZM14.9563 26.9016L20.1594 53.611L37.85 34.9375L27.4438 31.5266C27.2125 31.4688 27.0969 31.2954 27.0391 31.0641C26.9813 30.8329 27.0969 30.6016 27.2704 30.486L65.1954 4.29692L14.9563 26.9016Z" fill="#62355C" fill-opacity="0.33"/>
</svg>
