<svg width="78" height="40" viewBox="0 0 78 40" fill="none" xmlns="http://www.w3.org/2000/svg">
<circle cx="52.5" cy="14.2715" r="18.5" transform="rotate(30 52.5 14.2715)" fill="#C4C4C4"/>
<path d="M44.2207 20.4612L45.9207 17.5167L44.0371 16.4292L44.8496 15.0219L46.7332 16.1094L47.8457 14.1825L45.9621 13.095L46.9121 11.4495L48.7957 12.537L53.1457 5.00262L57.216 7.35262C59.1069 8.44428 60.2861 9.63511 60.7538 10.9251C61.2359 12.2234 61.0561 13.6015 60.2144 15.0593C59.3644 16.5315 58.1998 17.3987 56.7205 17.6609C55.2496 17.9086 53.5471 17.4742 51.6129 16.3575L49.7943 15.3075L48.6818 17.2344L52.2541 19.2969L51.4416 20.7042L47.8693 18.6417L46.1693 21.5862L44.2207 20.4612ZM50.7443 13.662L52.2815 14.5495C53.5949 15.3079 54.7375 15.6789 55.7092 15.6625C56.6953 15.6545 57.5134 15.0876 58.1634 13.9618C58.7301 12.9803 58.8478 12.0764 58.5166 11.25C58.1853 10.4237 57.3774 9.63973 56.0928 8.89807L54.1443 7.77307L50.7443 13.662Z" fill="white"/>
<line y1="14.2712" x2="30" y2="14.2712" stroke="#C4C4C4"/>
<line x1="15" y1="4.27124" x2="30" y2="4.27124" stroke="#C4C4C4"/>
<line x1="9" y1="23.2712" x2="30" y2="23.2712" stroke="#C4C4C4"/>
</svg>
