<svg width="66" height="90" viewBox="0 0 66 90" fill="none" xmlns="http://www.w3.org/2000/svg">
<path d="M17.1817 20.0008L10.1502 20.7003C7.40238 20.9737 5.39642 23.4229 5.66979 26.1708L6.84085 37.9418L7.81533 47.737M48.779 16.8573L73.5049 14.3974C76.2528 14.124 78.702 16.13 78.9753 18.8779L84.6495 75.9131C84.9229 78.661 82.917 81.1102 80.1691 81.3835L16.8144 87.6864C14.0666 87.9598 11.6174 85.9538 11.344 83.206L9.70142 66.6953" stroke="#8C8C8C" stroke-width="2"/>
<path d="M5.11752 49.0103L26.9525 46.8381C29.1508 46.6194 31.1102 48.2241 31.3289 50.4224L32.225 59.4299C32.4437 61.6282 30.8389 63.5875 28.6406 63.8062L6.80562 65.9785L5.11752 49.0103Z" stroke="#808080" stroke-width="2"/>
<circle cx="24.5571" cy="55.6444" r="3.17532" transform="rotate(-5.68143 24.5571 55.6444)" fill="#818181"/>
<line x1="6.08167" y1="30.3116" x2="71.8039" y2="23.7731" stroke="#8C8C8C" stroke-width="2"/>
<path d="M65.4752 24.3097L25.3064 6.15712C24.2999 5.70224 23.1151 6.14948 22.6603 7.15604L12.4153 29.8265" stroke="#8C8C8C" stroke-width="2"/>
</svg>
